<?xml version="1.0" standalone="no"?><!DOCTYPE svg PUBLIC "-//W3C//DTD SVG 1.1//EN" "http://www.w3.org/Graphics/SVG/1.1/DTD/svg11.dtd"><svg t="1531130248244" class="icon" style="" viewBox="0 0 1024 1024" version="1.1" xmlns="http://www.w3.org/2000/svg" p-id="3295" data-spm-anchor-id="a313x.7781069.0.i4" xmlns:xlink="http://www.w3.org/1999/xlink" width="128" height="128"><defs><style type="text/css"></style></defs><path d="M310.741354 529.706771l-47.384316 0 0 72.323429c0 5.486605 4.48904 9.975645 9.975645 9.975645s9.975645-4.48904 9.975645-9.975645l0-52.372138 27.433025 0c5.486605 0 9.975645-4.48904 9.975645-9.975645S316.227959 529.706771 310.741354 529.706771z" p-id="3296" fill="#BDC9D7"></path><path d="M921.749635 906.287384l-96.264978 0L825.484657 101.252801 199.512908 101.252801l0 805.034584L103.24793 906.287384c-8.479299 0-14.963468 6.48417-14.963468 14.963468s6.48417 14.963468 14.963468 14.963468L199.512908 936.214321l625.971749 0 96.264978 0c8.479299 0 14.963468-6.48417 14.963468-14.963468S929.730151 906.287384 921.749635 906.287384zM795.55772 340.66829 229.439844 340.66829l0-49.878227 566.117876 0L795.55772 340.66829zM795.55772 260.863127 229.439844 260.863127l0-49.878227 566.117876 0L795.55772 260.863127zM229.439844 370.595226l566.117876 0 0 49.878227L229.439844 420.473453 229.439844 370.595226zM795.55772 131.179737l0 49.878227L229.439844 181.057964l0-49.878227L795.55772 131.179737zM229.439844 906.287384 229.439844 450.40039l566.117876 0 0 455.886995L229.439844 906.287384z" p-id="3297" fill="#BDC9D7"></path></svg>