<?xml version="1.0" standalone="no"?><!DOCTYPE svg PUBLIC "-//W3C//DTD SVG 1.1//EN" "http://www.w3.org/Graphics/SVG/1.1/DTD/svg11.dtd"><svg t="1554888260971" class="icon" style="" viewBox="0 0 1038 1024" version="1.1" xmlns="http://www.w3.org/2000/svg" p-id="12407" xmlns:xlink="http://www.w3.org/1999/xlink" width="202.734375" height="200"><defs><style type="text/css"></style></defs><path d="M263.68 0H64A64 64 0 0 0 0 64v896a64 64 0 0 0 64 64h199.68a64 64 0 0 0 64-64V64a64 64 0 0 0-64-64z m0 992v-32H64V64h199.68v896zM618.88 0H419.2a64 64 0 0 0-64 64v896a64 64 0 0 0 64 64h199.68a64 64 0 0 0 64-64V64a64 64 0 0 0-64-64z m0 992v-32H419.2V64h199.68v896zM974.72 0H775.04a64 64 0 0 0-64 64v896a64 64 0 0 0 64 64h199.68a64 64 0 0 0 64-64V64a64 64 0 0 0-64-64z m0 992v-32H775.04V64h199.68v896z" fill="#11AAED" p-id="12408"></path><path d="M131.84 177.28h64q32 0 32 32v351.36q0 32-32 32h-64q-32 0-32-32V209.28q0-32 32-32zM99.84 742.4a64 64 0 1 0 128 0 64 64 0 1 0-128 0zM487.04 183.68h64q32 0 32 32v351.36q0 32-32 32h-64q-32 0-32-32V215.68q0-32 32-32zM455.04 747.52a64 64 0 1 0 128 0 64 64 0 1 0-128 0zM842.88 183.68h64q32 0 32 32v351.36q0 32-32 32h-64q-32 0-32-32V215.68q0-32 32-32zM810.88 747.52a64 64 0 1 0 128 0 64 64 0 1 0-128 0z" fill="#11AAED" p-id="12409"></path></svg>