<?xml version="1.0" standalone="no"?><!DOCTYPE svg PUBLIC "-//W3C//DTD SVG 1.1//EN" "http://www.w3.org/Graphics/SVG/1.1/DTD/svg11.dtd"><svg t="1552029452696" class="icon" style="" viewBox="0 0 1024 1024" version="1.1" xmlns="http://www.w3.org/2000/svg" p-id="2091" xmlns:xlink="http://www.w3.org/1999/xlink" width="200" height="200"><defs><style type="text/css"></style></defs><path d="M512.1 0h-0.1C229.2 0 0 229.2 0 511.9s229.2 511.9 511.9 511.9h0.1c282.7 0 511.9-229.2 511.9-511.9C1024 229.2 794.8 0 512.1 0zM200.8 769.6c-17.7 0-32-14.3-32-32s14.3-32 32-32 32 14.3 32 32-14.4 32-32 32z m0-150.5c-17.7 0-32-14.3-32-32s14.3-32 32-32 32 14.3 32 32c0 17.6-14.4 32-32 32z m0-150.6c-17.7 0-32-14.3-32-32s14.3-32 32-32 32 14.3 32 32-14.4 32-32 32z m0-150.5c-17.7 0-32-14.3-32-32s14.3-32 32-32 32 14.3 32 32-14.4 32-32 32z m654.3 419.6c0 17.6-14.4 32-32 32H335.9c-17.6 0-32-14.4-32-32s14.4-32 32-32h487.2c17.6 0 32 14.4 32 32z m0-150.5c0 17.6-14.4 32-32 32H335.9c-17.6 0-32-14.4-32-32s14.4-32 32-32h487.2c17.6 0 32 14.4 32 32z m0-150.6c0 17.6-14.4 32-32 32H335.9c-17.6 0-32-14.4-32-32s14.4-32 32-32h487.2c17.6 0 32 14.4 32 32z m0-150.5c0 17.6-14.4 32-32 32H335.9c-17.6 0-32-14.4-32-32s14.4-32 32-32h487.2c17.6 0 32 14.4 32 32z" fill="#11AAED" p-id="2092"></path></svg>