<?xml version="1.0" standalone="no"?><!DOCTYPE svg PUBLIC "-//W3C//DTD SVG 1.1//EN" "http://www.w3.org/Graphics/SVG/1.1/DTD/svg11.dtd"><svg t="1531130307432" class="icon" style="" viewBox="0 0 1024 1024" version="1.1" xmlns="http://www.w3.org/2000/svg" p-id="3996" data-spm-anchor-id="a313x.7781069.0.i8" xmlns:xlink="http://www.w3.org/1999/xlink" width="128" height="128"><defs><style type="text/css"></style></defs><path d="M223.488 508.864l184.96 0L408.448 467.008l-184.96 0L223.488 508.864zM223.488 578.368l184.96 0L408.448 536.064l-184.96 0L223.488 578.368zM223.488 439.808l184.96 0L408.448 397.888l-184.96 0L223.488 439.808zM832 64 192 64C121.344 64 64 121.344 64 192l0 640c0 70.656 57.344 128 128 128l640 0c70.656 0 128-57.344 128-128L960 192C960 121.344 902.656 64 832 64zM129.472 578.368l64.832 0 0-180.48L137.152 397.888 137.152 369.92l57.216 0L194.368 321.792l29.184 0L223.552 369.92l184.96 0L408.512 321.792l29.184 0L437.696 369.92l57.216 0 0 27.968L437.632 397.888l0 180.48 65.472 0 0 27.968L129.472 606.336 129.472 578.368zM143.104 704.128c-3.264-8.256-8.448-17.984-15.488-29.12 52.8-19.648 96.768-40.448 131.904-62.464l18.176 25.984C229.696 665.664 184.896 687.552 143.104 704.128zM488.384 702.208c-43.2-22.976-88.704-44.224-136.448-63.616L368.64 612.096c61.12 25.152 106.368 45.056 135.68 59.84L488.384 702.208zM592.576 700.608 563.84 700.608 563.84 481.344C551.488 501.696 538.624 520.448 525.12 537.6 521.344 526.528 517.312 515.008 513.024 503.04 552.192 449.024 581.888 387.84 602.048 319.488l30.656 10.496C620.352 365.312 606.976 397.888 592.576 427.84L592.576 700.608zM884.736 647.488c-6.336 28.416-27.392 42.688-63.232 42.688l-116.352 0c-36.608 0-54.912-18.624-54.912-55.936L650.24 478.272 616.064 486.4 611.2 457.664l38.976-9.152L650.176 368.832l29.568 0 0 72.96 63.616-14.912L743.36 323.392l29.632 0L772.992 419.84l98.496-23.04c-1.728 57.408-3.2 97.152-4.16 119.104-1.28 23.04-4.928 38.208-11.008 45.44-6.784 8.832-18.944 13.184-36.352 13.184-7.808 0-17.792-0.256-29.952-0.768-1.472-9.856-3.392-20.416-5.696-31.872 10.88 1.344 21.76 2.24 32.64 2.752 13.632 0.768 20.672-9.344 21.184-30.272 1.28-21.76 2.176-48.96 2.688-81.536l-67.84 16.128 0 172.096-29.632 0L743.36 456.128l-63.616 15.104 0 156.8c0 21.76 10.496 32.64 31.424 32.64l105.344 0c22.976 0 36.096-8.704 39.36-25.984 3.328-16.576 6.08-36.608 8.384-60.16 10.56 4.096 21.056 7.744 31.424 10.88C892.416 609.92 888.832 630.656 884.736 647.488z" p-id="3997" fill="#BDC9D7"></path></svg>