<?xml version="1.0" standalone="no"?><!DOCTYPE svg PUBLIC "-//W3C//DTD SVG 1.1//EN" "http://www.w3.org/Graphics/SVG/1.1/DTD/svg11.dtd"><svg t="1552029314660" class="icon" style="" viewBox="0 0 1024 1024" version="1.1" xmlns="http://www.w3.org/2000/svg" p-id="1203" xmlns:xlink="http://www.w3.org/1999/xlink" width="200" height="200"><defs><style type="text/css"></style></defs><path d="M684.5 632c-11 0-22 4.2-30.4 12.6-16.7 16.7-16.7 44 0 60.7 16.7 16.7 44 16.7 60.7 0 16.7-16.7 16.7-44 0-60.7-8.3-8.4-19.3-12.6-30.3-12.6z" fill="#11AAED" p-id="1204"></path><path d="M789.7 679.1l-1.5-0.4c-1.8-0.5-3.6-1-5.2-1.4l-7.5-1.8-0.6-7.7c-0.9-11.2-3.7-22-8.5-32.1l-3.3-7 5.6-5.3c1.2-1.2 2.5-2.4 3.8-3.7l1.1-1.1c5.5-5.5 5.5-14.4 0-19.8l-12.9-12.9c-5.5-5.5-14.4-5.5-19.8 0l-1.1 1.1-3.8 3.8-5.3 5.6-7-3.3c-10.1-4.8-20.9-7.7-32.1-8.5l-7.7-0.6-1.8-7.5c-0.4-1.6-0.9-3.3-1.3-5.1l-0.4-1.5c-2-7.5-9.7-11.9-17.2-9.9l-17.6 4.7c-3.6 1-6.6 3.3-8.5 6.6-1.9 3.3-2.4 7-1.4 10.6l0.4 1.5c0.5 1.8 0.9 3.5 1.4 5.1l2.2 7.4-6.4 4.4c-4.6 3.2-9 6.8-12.8 10.6-3.9 3.9-7.5 8.2-10.6 12.8l-4.4 6.4-7.4-2.2c-1.6-0.5-3.3-0.9-5.1-1.4l-1.5-0.4c-3.6-1-7.4-0.5-10.6 1.4-3.3 1.9-5.6 4.9-6.6 8.5l-4.7 17.6c-1 3.6-0.5 7.4 1.4 10.6s4.9 5.6 8.5 6.6l1.5 0.4c1.8 0.5 3.6 1 5.2 1.4l7.5 1.8 0.6 7.7c0.9 11.2 3.7 22 8.5 32.1l3.3 7-5.6 5.3c-1.2 1.2-2.5 2.4-3.8 3.7l-1.1 1.1c-5.5 5.5-5.5 14.4 0 19.8l12.9 12.9c5.5 5.5 14.4 5.5 19.8 0l1.1-1.1c1.3-1.3 2.6-2.5 3.7-3.8l5.3-5.6 7 3.3c10.1 4.8 20.8 7.7 32.1 8.5l7.7 0.6 1.8 7.5c0.4 1.6 0.9 3.4 1.4 5.2l0.4 1.5c1 3.6 3.3 6.6 6.6 8.5 3.3 1.9 7 2.4 10.6 1.4l17.6-4.7c3.6-1 6.6-3.3 8.5-6.6 1.9-3.3 2.4-7 1.4-10.6l-0.4-1.4c-0.5-1.8-1-3.6-1.4-5.2l-2.2-7.4 6.4-4.4c4.6-3.2 9-6.8 12.8-10.6 3.9-3.9 7.5-8.2 10.6-12.8l4.4-6.4 7.4 2.2c1.6 0.5 3.3 0.9 5.1 1.4l1.6 0.4c7.5 2 15.2-2.4 17.2-9.9l4.7-17.6c1-3.6 0.5-7.4-1.4-10.6-2-3.4-5-5.7-8.6-6.7z m-59.8 41.2c-12.5 12.5-29 18.8-45.4 18.8-16.5 0-32.9-6.3-45.4-18.8-25.1-25.1-25.1-65.8 0-90.9 25.1-25.1 65.8-25.1 90.9 0 25 25.1 25 65.9-0.1 90.9z" fill="#11AAED" p-id="1205"></path><path d="M485.3 380.9m-125.4 0a125.4 125.4 0 1 0 250.8 0 125.4 125.4 0 1 0-250.8 0Z" fill="#11AAED" p-id="1206"></path><path d="M512 0C229.2 0 0 229.2 0 512s229.2 512 512 512 512-229.2 512-512S794.8 0 512 0z m-26.7 545.4c-132 0-239.4 107.4-239.4 239.4 0 9-7.3 16.3-16.3 16.3s-16.3-7.3-16.3-16.3c0-125.6 85.5-231.5 201.4-262.6-51.8-26-87.4-79.5-87.4-141.3 0-87.1 70.9-158 158-158 92.6 0 158 74.5 158 158 0 34.6-11.2 66.7-30.2 92.7 0 0-9.1 11.2-13.8 15.7-5.9 5.6-21 18.8-28.6 24.3-4.6 3.4-9.7 5.9-14.8 8.5 17.2 4.6 33.7 11 49.4 18.7-7.7 8-14.6 16.8-20.7 26.2-30.3-13.8-63.9-21.6-99.3-21.6z m334.9 156.4l-4.7 17.6c-5 18.8-24.4 30-43.2 25-2.7 3.4-5.6 6.6-8.6 9.7s-6.3 5.9-9.7 8.6c2.4 9.1 1.1 18.5-3.6 26.7S738 803.5 729 805.9l-17.6 4.7c-3 0.8-6.1 1.2-9.2 1.2-6.1 0-12.2-1.6-17.7-4.8-8.2-4.7-14-12.3-16.5-21.4-8.6-1.2-16.9-3.5-24.9-6.6-13.8 13.7-36.2 13.7-49.9-0.1L580.3 766c-13.8-13.8-13.8-36.1-0.1-49.9-3.2-8-5.4-16.4-6.6-24.9-9.1-2.5-16.6-8.3-21.4-16.5-4.7-8.2-6-17.7-3.6-26.8l4.7-17.6c2.4-9.1 8.3-16.7 16.5-21.4 8.2-4.7 17.6-6 26.7-3.6 2.7-3.4 5.6-6.7 8.6-9.7s6.3-5.9 9.7-8.6c-4.9-18.8 6.3-38.1 25-43.2l17.6-4.7c18.8-5 38.2 6.1 43.3 24.9 8.6 1.2 16.9 3.5 24.9 6.6 13.8-13.7 36.2-13.7 49.9 0.1l12.9 12.9c13.8 13.8 13.8 36.1 0.1 49.9 3.2 8 5.4 16.4 6.6 24.9 9.1 2.5 16.6 8.3 21.4 16.5 4.9 8.3 6.1 17.8 3.7 26.9z" fill="#11AAED" p-id="1207"></path></svg>