<?xml version="1.0" standalone="no"?><!DOCTYPE svg PUBLIC "-//W3C//DTD SVG 1.1//EN" "http://www.w3.org/Graphics/SVG/1.1/DTD/svg11.dtd"><svg t="1531206880647" class="icon" style="" viewBox="0 0 1024 1024" version="1.1" xmlns="http://www.w3.org/2000/svg" p-id="1872" data-spm-anchor-id="a313x.7781069.0.i1" xmlns:xlink="http://www.w3.org/1999/xlink" width="128" height="128"><defs><style type="text/css"></style></defs><path d="M633.735624 441.758704l-46.9829 0-22.518727-22.518727-29.129726-29.179691c107.431428-0.10073 194.776835-87.584441 194.776835-194.995483 0-107.516568-87.45713-195.055641-195.040852-195.055641-107.51497 0-195.01427 87.539073-195.01427 195.055641 0 107.436224 87.367392 194.823803 194.759048 194.954911l-29.157906 29.220263-22.578885 22.518727-46.881371 0c-139.533285 0-252.448496 113.127463-252.448496 252.539832l0 329.694333 702.5868 0 0-329.694333C886.124961 554.91115 773.079441 441.758704 633.735624 441.758704zM584.08658 817.727829l-49.246125 49.391823-49.263313-49.391823 38.638707-281.182097-38.638707-38.602133 49.263313-49.350052 49.246125 49.350052-38.601333 38.602133L584.08658 817.727829zM381.391056 195.064803c0-84.761406 68.880259-153.510757 153.449399-153.510757 84.681662 0 153.47758 68.74935 153.47758 153.510757 0 84.705845-68.795918 153.47638-153.47758 153.47638C450.2931 348.541183 381.391056 279.770648 381.391056 195.064803zM844.493736 982.341858l-98.075539 0 0-299.422402-41.611638 0 0 299.422402L360.897519 982.341858l0-299.422402-41.563272 0 0 299.422402-94.2532 0 0-288.043322c0.25842-116.512307 94.378912-210.716941 210.886023-210.909807l5.334487 0-14.556269 14.55507 29.41153 29.35337 24.041867 24.019682-35.803281 260.820869-2.858211 20.467754 14.619425 14.665992 49.292293 49.18097 29.41153 29.481481 29.397539-29.481481 49.246125-49.18097 14.575855-14.665992-2.792656-20.44557-35.894617-260.822468 24.047263-24.016485 29.395141-29.351371-14.514098-14.580852 5.414232 0c116.335431 0.192866 210.586232 94.397499 210.757912 210.909807L844.493137 982.341858z" p-id="1873" fill="#BDC9D7"></path></svg>