<?xml version="1.0" standalone="no"?><!DOCTYPE svg PUBLIC "-//W3C//DTD SVG 1.1//EN" "http://www.w3.org/Graphics/SVG/1.1/DTD/svg11.dtd"><svg t="1552036435546" class="icon" style="" viewBox="0 0 1024 1024" version="1.1" xmlns="http://www.w3.org/2000/svg" p-id="10065" xmlns:xlink="http://www.w3.org/1999/xlink" width="200" height="200"><defs><style type="text/css"></style></defs><path d="M270.08 64.064l-179.2 0C76.032 64.064 64 76.096 64 90.944l0 178.688c0 0.128 0 0.256 0 0.384C64 284.928 76.032 296.96 90.88 296.96s27.008-12.032 27.008-26.944c0-1.536-0.256-3.136-0.512-4.608L117.376 122.176c0-2.496 1.984-4.48 4.416-4.48l145.408 0C268.16 117.76 269.12 117.952 270.08 117.952c14.848 0 26.944-12.032 26.944-26.944S284.928 64.064 270.08 64.064z" p-id="10066" fill="#ffffff"></path><path d="M847.552 830.784c0 9.856-8.128 17.856-17.92 17.856L190.528 848.64c-9.856 0-17.856-8-17.856-17.856L172.672 191.744c0-9.92 8-17.92 17.856-17.92l639.104 0c9.792 0 17.92 8 17.92 17.92L847.552 830.784z" p-id="10067" fill="#ffffff"></path><path d="M753.792 64.064l179.2 0c14.848 0 26.88 12.032 26.88 26.88l0 178.688C959.872 269.76 960 269.888 960 270.016c0 14.912-12.096 26.944-27.008 26.944s-26.944-12.032-26.944-26.944c0-1.536 0.256-3.136 0.448-4.608L906.496 122.176c0-2.496-1.92-4.48-4.48-4.48l-145.344 0c-1.024 0.064-1.856 0.256-2.88 0.256-14.848 0-26.88-12.032-26.88-26.944S738.944 64.064 753.792 64.064z" p-id="10068" fill="#ffffff"></path><path d="M270.08 959.936l-179.2 0C76.032 959.936 64 947.968 64 933.12l0-178.752c0-0.128 0-0.256 0-0.384 0-14.912 12.032-27.008 26.88-27.008s27.008 12.032 27.008 27.008c0 1.536-0.256 3.136-0.512 4.608l0 143.168c0 2.496 1.984 4.48 4.416 4.48l145.408 0c0.96-0.064 1.856-0.256 2.816-0.256 14.848 0 26.944 12.032 26.944 26.944S284.928 959.936 270.08 959.936z" p-id="10069" fill="#ffffff"></path><path d="M753.792 959.936l179.2 0c14.848 0 26.88-12.032 26.88-26.816l0-178.752c0-0.128 0.128-0.256 0.128-0.384 0-14.912-12.096-27.008-27.008-27.008s-26.944 12.032-26.944 27.008c0 1.536 0.256 3.136 0.448 4.608l0 143.168c0 2.496-1.92 4.48-4.48 4.48l-145.344 0c-1.024-0.064-1.856-0.256-2.88-0.256-14.848 0-26.88 12.032-26.88 26.944S738.944 959.936 753.792 959.936z" p-id="10070" fill="#ffffff"></path></svg>