<?xml version="1.0" standalone="no"?><!DOCTYPE svg PUBLIC "-//W3C//DTD SVG 1.1//EN" "http://www.w3.org/Graphics/SVG/1.1/DTD/svg11.dtd"><svg t="1531128392362" class="icon" style="" viewBox="0 0 1026 1024" version="1.1" xmlns="http://www.w3.org/2000/svg" p-id="2385" xmlns:xlink="http://www.w3.org/1999/xlink" width="128.25" height="128"><defs><style type="text/css"></style></defs><path d="M509.04 330.503c-98.412 0-178.477 80.048-178.477 178.44 0 98.394 80.064 178.442 178.477 178.442 98.412 0 178.475-80.049 178.475-178.442 0-98.392-80.063-178.44-178.475-178.44z m0 306.892c-70.842 0-128.477-57.625-128.477-128.452 0-70.83 57.635-128.455 128.477-128.455 70.842 0 128.475 57.625 128.475 128.455 0 70.829-57.633 128.452-128.475 128.452z m389.597-259.68H877.16l-2.503-6.663-0.117-0.249a23.58 23.58 0 0 1-0.67-1.517l-0.04-0.099c-3.065-7.992-5.921-14.897-8.731-21.11l-2.967-6.558 15.202-15.221c22.564-22.551 34.987-52.537 34.987-84.437s-12.426-61.893-34.99-84.457l-16.689-16.691c-22.561-22.552-52.558-34.97-84.466-34.97-31.907 0-61.9 12.418-84.453 34.966l-15.212 15.22-6.567-2.967c-6.72-3.038-14.213-6.108-22.907-9.386l-6.742-2.542v-21.61C640.296 53.574 586.712 0 520.847 0h-23.61C431.375 0 377.79 53.574 377.79 119.424v21.61l-6.742 2.542c-8.667 3.267-16.157 6.337-22.9 9.386l-6.565 2.965-15.22-15.216c-22.555-22.55-52.547-34.969-84.451-34.969-31.906 0-61.902 12.42-84.462 34.969l-16.695 16.694c-22.561 22.562-34.986 52.556-34.986 84.456 0 31.9 12.425 61.887 34.99 84.443l15.203 15.218-2.973 6.562c-2.83 6.248-5.605 12.955-8.758 21.167-0.216 0.553-0.453 1.07-0.697 1.58l-0.113 0.241-2.512 6.645h-21.46C53.584 377.717 0 431.29 0 497.14v23.612c0 65.847 53.584 119.42 119.448 119.42h21.484l2.499 6.67 0.11 0.235c0.24 0.507 0.474 1.018 0.712 1.626 3.071 8.005 5.928 14.908 8.735 21.105l2.973 6.56-15.208 15.225c-22.56 22.55-34.985 52.538-34.985 84.438s12.425 61.893 34.986 84.454l16.695 16.693c22.56 22.55 52.556 34.97 84.463 34.97 31.905 0 61.897-12.42 84.451-34.97l15.22-15.216 6.565 2.967c6.753 3.052 14.242 6.12 22.896 9.378l6.746 2.54v21.62c0 65.85 53.585 119.424 119.449 119.424h23.61c65.863 0 119.448-53.574 119.448-119.424v-21.62l6.748-2.54c8.68-3.269 16.171-6.334 22.9-9.378l6.568-2.967 15.21 15.216c22.555 22.55 52.548 34.97 84.453 34.97 31.907 0 61.905-12.42 84.466-34.968l16.692-16.693c22.563-22.563 34.988-52.557 34.988-84.456 0-31.9-12.425-61.887-34.995-84.444l-15.195-15.216 2.967-6.559c2.825-6.246 5.681-13.148 8.756-21.17 0.214-0.547 0.449-1.058 0.69-1.565l0.107-0.226 2.486-6.679h21.5c65.865 0 119.45-53.574 119.45-119.42V497.14c-0.004-65.852-53.587-119.425-119.451-119.425z m69.453 143.03c0 4.502-0.46 9.073-1.355 13.507-0.337 1.744-0.83 3.225-1.224 4.414-0.122 0.366-0.245 0.729-0.356 1.097l-0.305 1.104c-0.492 1.81-1.052 3.86-1.94 6.05-0.92 2.234-2.007 4.19-2.965 5.917l-0.585 1.058c-0.17 0.31-0.328 0.626-0.49 0.943-0.48 0.946-1.074 2.118-1.888 3.349-1.898 2.945-4.042 5.533-5.894 7.679l-0.072 0.082c-0.074 0.09-0.146 0.187-0.22 0.28a21.637 21.637 0 0 1-1.417 1.7c-2.398 2.566-5.1 5.002-8.318 7.486-0.275 0.235-0.554 0.462-0.85 0.682-10.192 7.671-22.422 12.344-35.333 13.508-0.483 0.045-0.96 0.112-1.437 0.177-1.31 0.18-2.939 0.403-4.803 0.403h-58.696c-8.03 32.412-21.474 64.189-40.055 94.675l42.098 42.071c10.604 10.601 17.33 24.244 19.457 39.497 0.046 0.335 0.075 0.663 0.104 1.032 0.509 4.07 0.69 7.727 0.56 11.1a24.847 24.847 0 0 1-0.194 2.28c-0.02 0.164-0.042 0.325-0.054 0.466-0.217 2.875-0.514 6.231-1.265 9.582-0.291 1.346-0.674 2.537-0.982 3.498-0.12 0.373-0.242 0.75-0.351 1.128l-0.404 1.386c-0.532 1.84-1.134 3.928-2.066 6.11-0.872 2.09-1.905 3.919-2.818 5.534-0.206 0.363-0.412 0.728-0.66 1.173-0.217 0.386-0.415 0.781-0.615 1.175-0.529 1.041-1.183 2.333-2.088 3.683-2.587 3.866-5.487 7.42-8.624 10.564l-16.714 16.708c-3.128 3.114-6.667 6.006-10.518 8.593l-0.106 0.07c-1.316 0.861-2.58 1.505-3.596 2.022-0.41 0.206-0.824 0.414-1.204 0.626l-0.954 0.54c-1.68 0.956-3.585 2.043-5.69 2.918-2.142 0.91-4.17 1.498-5.962 2.018-0.472 0.137-0.948 0.275-1.423 0.417l-0.22 0.065c-0.368 0.104-0.734 0.222-1.1 0.34-0.946 0.302-2.117 0.679-3.462 0.961-3.43 0.759-6.77 1.077-9.59 1.289l-0.112 0.006c-0.164 0.012-0.326 0.034-0.49 0.053-0.526 0.06-1.24 0.138-2.064 0.167a54.44 54.44 0 0 1-2.347 0.05c-2.713 0-5.627-0.197-8.905-0.602l-0.067-0.008a16.292 16.292 0 0 1-0.94-0.102c-15.191-2.125-28.83-8.844-39.447-19.438l-42.035-42.023c-30.51 18.621-62.311 32.085-94.747 40.112v58.545c0 1.847-0.22 3.467-0.396 4.768-0.064 0.477-0.132 0.954-0.176 1.429-1.172 12.933-5.83 25.135-13.476 35.305-0.16 0.22-0.327 0.432-0.506 0.652l-0.158 0.201c-2.522 3.245-4.99 5.976-7.54 8.348a22.456 22.456 0 0 1-1.763 1.483c-0.102 0.078-0.205 0.155-0.306 0.24-2.303 1.988-4.838 4.083-7.711 5.925-1.171 0.758-2.289 1.332-3.187 1.792-0.34 0.174-0.683 0.349-1.038 0.543l-0.765 0.426c-1.804 1.001-3.85 2.137-6.16 3.116l-0.15 0.061c-2.11 0.854-4.148 1.414-5.946 1.907l-1.185 0.33c-0.427 0.12-0.846 0.26-1.266 0.4-1.125 0.368-2.522 0.83-4.143 1.15a69.544 69.544 0 0 1-13.575 1.362h-23.61c-4.475 0-9.043-0.458-13.574-1.362-1.615-0.319-3.003-0.774-4.116-1.14-0.426-0.14-0.85-0.283-1.31-0.413l-1.182-0.327c-1.793-0.494-3.825-1.054-5.93-1.906l-0.146-0.061c-2.316-0.979-4.368-2.119-6.176-3.122l-0.769-0.428c-0.336-0.185-0.678-0.358-1.019-0.533-0.901-0.46-2.023-1.035-3.15-1.766-3.027-1.94-5.587-4.086-7.725-5.926-0.103-0.088-0.21-0.166-0.317-0.247-0.467-0.364-1.103-0.858-1.802-1.519-2.549-2.379-5.009-5.104-7.518-8.334l-0.05-0.065c-0.15-0.18-0.384-0.464-0.65-0.835-7.633-10.17-12.278-22.357-13.437-35.225-0.044-0.476-0.111-0.95-0.176-1.424-0.178-1.312-0.399-2.944-0.399-4.805v-58.547c-32.45-8.034-64.25-21.495-94.745-40.108l-42.043 42.03c-10.617 10.588-24.255 17.306-39.421 19.427-0.314 0.045-0.623 0.074-0.97 0.104l-0.057 0.006c-3.276 0.406-6.189 0.605-8.905 0.605-0.784 0-1.57-0.017-2.356-0.051a24.77 24.77 0 0 1-2.059-0.17c-0.164-0.019-0.326-0.038-0.49-0.05l-0.108-0.006c-2.82-0.212-6.162-0.53-9.593-1.289-1.338-0.282-2.501-0.656-3.44-0.957-0.369-0.115-0.736-0.237-1.11-0.341l-0.25-0.07c-0.482-0.15-0.965-0.288-1.45-0.429-1.778-0.515-3.794-1.102-5.843-1.975-2.164-0.9-4.049-1.972-5.712-2.92l-0.99-0.56c-0.402-0.227-0.813-0.433-1.222-0.64-1.02-0.516-2.286-1.16-3.687-2.08-3.858-2.586-7.401-5.482-10.543-8.616l-16.703-16.703a69.74 69.74 0 0 1-8.615-10.55c-0.908-1.357-1.564-2.648-2.09-3.687-0.2-0.395-0.398-0.79-0.646-1.23l-0.587-1.043c-0.932-1.64-1.986-3.498-2.872-5.625-0.923-2.171-1.522-4.246-2.051-6.08-0.124-0.428-0.422-1.443-0.422-1.443-0.109-0.385-0.233-0.765-0.356-1.144-0.302-0.94-0.679-2.111-0.956-3.39-0.736-3.316-1.048-6.592-1.276-9.63-0.012-0.166-0.035-0.333-0.055-0.5-0.066-0.558-0.156-1.316-0.184-2.2-0.136-3.395 0.045-7.027 0.547-11.06 0.029-0.402 0.068-0.811 0.13-1.228 2.128-15.18 8.85-28.802 19.442-39.388l42.09-42.071c-18.58-30.487-32.022-62.263-40.05-94.675h-58.699c-1.866 0-3.492-0.224-4.798-0.403-0.476-0.064-0.952-0.132-1.4-0.175-12.954-1.166-25.183-5.837-35.37-13.51-0.27-0.2-0.53-0.409-0.808-0.647-3.174-2.444-5.907-4.9-8.353-7.51-0.626-0.666-1.107-1.294-1.427-1.708-0.06-0.08-0.118-0.157-0.18-0.234l-0.128-0.148c-1.852-2.153-3.997-4.748-5.885-7.666-0.792-1.208-1.375-2.355-1.846-3.278-0.165-0.327-0.33-0.655-0.529-1.014l-0.57-1.035c-0.96-1.732-2.047-3.695-2.988-5.975-0.88-2.156-1.443-4.22-1.94-6.041l-0.3-1.088c-0.111-0.375-0.235-0.745-0.359-1.118-0.39-1.182-0.878-2.656-1.196-4.306a68.999 68.999 0 0 1-1.371-13.584v-23.607c0-4.487 0.461-9.056 1.355-13.503 0.336-1.738 0.826-3.216 1.22-4.403 0.124-0.377 0.25-0.752 0.363-1.13 0.11-0.392 0.217-0.787 0.326-1.181 0.488-1.784 1.042-3.804 1.915-5.944 0.923-2.243 2.007-4.2 2.964-5.926l0.59-1.07c0.176-0.32 0.34-0.647 0.505-0.972 0.473-0.932 1.06-2.087 1.855-3.301 1.857-2.873 3.91-5.345 5.854-7.633l0.146-0.166c0.07-0.085 0.137-0.173 0.205-0.26 0.325-0.42 0.808-1.042 1.445-1.71 2.438-2.613 5.171-5.076 8.352-7.525 0.256-0.218 0.517-0.43 0.79-0.632 10.177-7.662 22.402-12.331 35.359-13.504 0.486-0.043 0.966-0.113 1.445-0.177 1.295-0.176 2.908-0.395 4.76-0.395h58.698c8.034-32.425 21.475-64.202 40.05-94.675l-42.092-42.075c-10.593-10.595-17.314-24.216-19.441-39.392a16.34 16.34 0 0 1-0.129-1.218c-0.502-4.053-0.683-7.677-0.547-11.07 0.028-0.882 0.118-1.642 0.185-2.2 0.02-0.166 0.043-0.332 0.054-0.49 0.23-3.043 0.541-6.316 1.266-9.584 0.29-1.344 0.673-2.537 0.98-3.496 0.12-0.376 0.244-0.753 0.352-1.135 0 0 0.288-0.976 0.412-1.406 0.533-1.845 1.137-3.936 2.048-6.072 0.9-2.147 1.974-4.038 2.92-5.708l0.574-1.014c0.218-0.385 0.415-0.783 0.616-1.179 0.525-1.037 1.178-2.328 2.083-3.679a70.301 70.301 0 0 1 8.629-10.566l16.703-16.703c3.111-3.102 6.65-5.995 10.524-8.6l0.1-0.066c1.313-0.86 2.576-1.502 3.59-2.017 0.41-0.209 0.824-0.415 1.243-0.65l1.048-0.592c1.636-0.93 3.492-1.982 5.567-2.852 2.158-0.917 4.207-1.509 6.013-2.03 0.461-0.132 0.924-0.267 1.385-0.406l0.208-0.06c0.372-0.103 0.738-0.223 1.103-0.34 0.947-0.304 2.12-0.68 3.47-0.963 3.473-0.767 6.874-1.078 9.485-1.26 0.14-0.015 0.282-0.033 0.423-0.05 0.609-0.076 1.442-0.18 2.353-0.21a60.406 60.406 0 0 1 2.151-0.038c2.793 0 5.674 0.19 8.797 0.581 0.309 0.017 0.79 0.051 1.366 0.137 15.156 2.126 28.77 8.838 39.38 19.423l42.035 42.026c30.493-18.617 62.293-32.08 94.745-40.114v-58.545c0-1.862 0.221-3.49 0.4-4.799 0.064-0.473 0.131-0.947 0.172-1.387 1.163-12.92 5.818-25.124 13.464-35.298 0.193-0.265 0.394-0.521 0.616-0.788l0.061-0.08c2.53-3.253 4.994-5.984 7.532-8.344a22.83 22.83 0 0 1 1.79-1.508c0.108-0.085 0.218-0.167 0.279-0.216 2.32-2.004 4.869-4.112 7.715-5.927 1.172-0.76 2.294-1.334 3.194-1.794 0.341-0.174 0.684-0.348 1.013-0.53l0.64-0.357c1.872-1.044 3.992-2.226 6.384-3.208 2.156-0.893 4.228-1.464 6.055-1.968l1.118-0.311c0.43-0.124 0.853-0.264 1.276-0.403 1.126-0.37 2.53-0.83 4.168-1.157a69.94 69.94 0 0 1 13.57-1.352h23.61c4.488 0 9.053 0.456 13.57 1.353 1.644 0.328 3.06 0.792 4.197 1.166 0.417 0.137 0.833 0.277 1.228 0.39l1.144 0.318c1.826 0.503 3.897 1.073 6.028 1.955 2.368 0.974 4.444 2.128 6.273 3.146l0.768 0.427c0.336 0.187 0.68 0.36 1.021 0.535 0.897 0.46 2.015 1.031 3.124 1.75 2.943 1.878 5.481 3.983 7.734 5.93 0.106 0.09 0.216 0.173 0.326 0.258 0.46 0.357 1.084 0.842 1.77 1.488 2.539 2.355 5.01 5.09 7.552 8.358l0.094 0.122c0.199 0.238 0.392 0.483 0.58 0.74 7.64 10.171 12.299 22.375 13.467 35.292 0.044 0.481 0.112 0.958 0.176 1.435 0.176 1.299 0.396 2.916 0.396 4.763v58.546c32.45 8.034 64.248 21.497 94.748 40.114l42.04-42.032c10.601-10.58 24.22-17.296 39.388-19.42a14.435 14.435 0 0 1 1.328-0.133c3.134-0.393 6.022-0.583 8.818-0.583 0.716 0 1.431 0.013 2.096 0.037 0.962 0.03 1.794 0.134 2.401 0.21 0.142 0.017 0.286 0.036 0.428 0.052 2.614 0.182 6.021 0.493 9.5 1.263 1.35 0.284 2.528 0.661 3.477 0.966 0.363 0.117 0.727 0.236 1.093 0.339l1.535 0.448c1.82 0.524 3.882 1.12 5.999 2.02 2.147 0.895 4.014 1.957 5.663 2.894l1.018 0.576c0.406 0.227 0.82 0.434 1.232 0.644 1.013 0.514 2.272 1.153 3.582 2.009l0.123 0.082c3.861 2.6 7.398 5.49 10.524 8.602l16.71 16.708c3.124 3.133 6.02 6.68 8.604 10.538 0.906 1.352 1.555 2.635 2.076 3.665 0.2 0.397 0.397 0.795 0.617 1.18l0.647 1.147c0.929 1.645 1.983 3.508 2.828 5.54 0.942 2.2 1.55 4.3 2.085 6.153 0.121 0.424 0.406 1.391 0.406 1.391 0.108 0.382 0.231 0.76 0.353 1.135 0.306 0.96 0.688 2.153 0.96 3.418 0.77 3.428 1.066 6.78 1.282 9.638 0.013 0.161 0.036 0.324 0.055 0.487 0.07 0.573 0.165 1.359 0.192 2.172 0.139 3.432-0.044 7.102-0.558 11.216-0.024 0.323-0.054 0.656-0.108 1.069-2.12 15.2-8.846 28.84-19.453 39.452l-42.095 42.072c18.574 30.47 32.016 62.243 40.053 94.674h58.695c1.85 0 3.466 0.219 4.763 0.395 0.48 0.064 0.961 0.134 1.441 0.177 12.94 1.164 25.165 5.832 35.358 13.502 0.278 0.204 0.545 0.422 0.826 0.66 3.193 2.462 5.917 4.92 8.327 7.509a21.776 21.776 0 0 1 1.442 1.705l0.172 0.225 0.17 0.195c1.94 2.28 3.987 4.747 5.843 7.616 0.822 1.246 1.422 2.432 1.907 3.389 0.159 0.316 0.318 0.632 0.457 0.89l0.534 0.96c0.982 1.765 2.095 3.762 3.051 6.092 0.85 2.095 1.4 4.1 1.884 5.871 0.108 0.4 0.219 0.8 0.33 1.196 0.112 0.372 0.236 0.74 0.36 1.11 0.399 1.195 0.893 2.682 1.217 4.358a69.05 69.05 0 0 1 1.37 13.581v23.614z" fill="#ffffff" p-id="2386"></path></svg>