<?xml version="1.0" standalone="no"?><!DOCTYPE svg PUBLIC "-//W3C//DTD SVG 1.1//EN" "http://www.w3.org/Graphics/SVG/1.1/DTD/svg11.dtd"><svg t="1552031327439" class="icon" style="" viewBox="0 0 1024 1024" version="1.1" xmlns="http://www.w3.org/2000/svg" p-id="7458" xmlns:xlink="http://www.w3.org/1999/xlink" width="200" height="200"><defs><style type="text/css"></style></defs><path d="M512.1 676.6c-90.5 0-164.2-73.7-164.2-164.2s73.7-164.2 164.2-164.2 164.2 73.7 164.2 164.2-73.7 164.2-164.2 164.2z m0-252.7c-48.7 0-88.4 39.7-88.4 88.4s39.7 88.4 88.4 88.4 88.4-39.7 88.4-88.4-39.7-88.4-88.4-88.4z" fill="#11AAED" p-id="7459"></path><path d="M675.6 967.1c-11.9 0-23.6-4.2-33.1-12.3l-104.3-90.2-47.9-0.2-114.7 90.2c-16.4 12.9-39 14.4-56.9 3.8l-97.5-57.5c-16.6-9.8-26.2-28.2-24.7-47.4l11.8-151.3-24.9-43.2-118.5-44.7c-19.8-7.4-32.8-26.4-32.7-47.6l0.6-114c0.1-17.9 9.6-34.4 25.1-43.4l124.8-72.7 27.6-46.7-10.1-121.1c-1.6-19.5 8.2-38.2 25.2-48l98.2-56.4c15.5-9 34.6-9 50.2-0.1L490 130.4l56.9 0.3 107.3-64c15.9-9.4 35.7-9.5 51.6-0.1l97.5 57.5c15.8 9.3 25.4 26.5 24.8 44.9l-3.4 122.8 28.4 49.3 115.8 74.2c14.6 9.3 23.4 25.5 23.3 42.8l-0.6 114c-0.1 20.7-12.9 39.2-32.1 46.8l-110.6 43.2-26.4 44.7 2 152.8c0.2 18.3-9.4 35.4-25.3 44.5L701 960.6c-8.1 4.3-16.8 6.5-25.4 6.5z m-202.7-204h0.3l84.2 0.4c12 0.1 23.7 4.4 32.8 12.3l91.3 79 41.3-23.8-1.8-137.2c-0.1-9.3 2.3-18.4 7-26.4l42.5-71.9c5.7-9.7 14.6-17.3 25.1-21.4l95-37.1 0.3-51.8L788 419.4c-6.8-4.4-12.5-10.3-16.6-17.3l-41.7-72.4c-4.6-8.1-7-17.3-6.7-26.6l3-107.3-46-27.2-93.6 55.9c-7.9 4.7-17.4 7.7-26.2 7.2l-84.2-0.4c-8.7 0-17.2-2.3-24.7-6.6l-102.6-58.3-45.3 26.1 8.8 105.2c0.9 10.4-1.5 20.9-6.8 29.9l-42.5 72c-4.4 7.4-10.6 13.6-18.1 18l-111.2 64.8-0.3 50L235.8 571c11 4.1 20.2 11.9 26 22.1l41.7 72.4c5.1 8.8 7.4 19 6.6 29.1l-10.6 135.5 40.6 24L441.7 774c8.9-7.1 19.9-10.9 31.2-10.9z" fill="#11AAED" p-id="7460"></path></svg>