<?xml version="1.0" standalone="no"?><!DOCTYPE svg PUBLIC "-//W3C//DTD SVG 1.1//EN" "http://www.w3.org/Graphics/SVG/1.1/DTD/svg11.dtd"><svg t="1552029665602" class="icon" style="" viewBox="0 0 1024 1024" version="1.1" xmlns="http://www.w3.org/2000/svg" p-id="1053" xmlns:xlink="http://www.w3.org/1999/xlink" width="200" height="200"><defs><style type="text/css"></style></defs><path d="M555.8 833c-33.9 0-65-22.7-74.2-56.9l-1-3.6-0.3-1.2c-23.4-2.9-46-9-67.7-18l-0.8 0.8-2.6 2.6c-29.9 29.9-78.7 29.9-108.6 0l-30.8-30.8c-14.5-14.5-22.4-33.7-22.4-54.3s8-39.8 22.4-54.3l2.6-2.6 0.9-0.9c-9-21.6-15.1-44.3-18-67.7l-1.2-0.3-3.6-1c-19.8-5.3-36.3-18-46.6-35.8-10.3-17.8-13-38.5-7.7-58.2l11.3-42.1c11-40.9 53.2-65.3 94.1-54.3l3.5 0.9 1.2 0.3c7.2-9.4 14.9-18.3 23.1-26.5 8.2-8.2 17.1-15.9 26.5-23.1l-0.3-1.2-0.9-3.5c-11-40.9 13.4-83.1 54.3-94.1l42.1-11.3c19.8-5.3 40.4-2.5 58.2 7.7 17.8 10.3 30.5 26.8 35.8 46.6l1 3.6 0.3 1.2c23.4 2.9 46 9 67.7 18l0.8-0.8 2.6-2.6c14.5-14.5 33.7-22.4 54.3-22.4s39.8 8 54.3 22.4l30.8 30.8c14.5 14.5 22.4 33.7 22.4 54.3s-8 39.8-22.4 54.3l-2.5 2.5-0.9 0.9c9 21.6 15.1 44.3 18 67.7l1.2 0.3 3.6 1c40.9 11 65.3 53.2 54.3 94.1l-11.3 42c-5.3 19.8-18 36.3-35.8 46.6s-38.5 13-58.2 7.7l-3.5-0.9c-0.4-0.1-0.8-0.2-1.1-0.3-7.2 9.4-14.9 18.3-23.1 26.5-8.2 8.2-17.1 15.9-26.5 23.1 0.1 0.4 0.2 0.8 0.3 1.1l0.9 3.5c5.3 19.8 2.5 40.4-7.7 58.2-10.3 17.8-26.8 30.5-46.6 35.8l-42 11.3c-6.9 2.1-13.6 2.9-20.2 2.9zM404.7 710.6l11.6 5.5c24.9 11.9 51.7 19 79.4 21.2l12.8 1 3 12.5c1 4 2.1 8.1 3.3 12.6l1 3.6c5.9 22 28.6 35.1 50.7 29.2l42-11.3c10.6-2.8 19.5-9.7 25.1-19.3s7-20.7 4.2-31.4l-1-3.6c-1.2-4.4-2.3-8.6-3.4-12.5l-3.6-12.3 10.6-7.3c11.5-7.9 22.2-16.8 31.8-26.4 9.6-9.6 18.5-20.3 26.4-31.8l7.3-10.6 12.3 3.6c3.9 1.1 8.1 2.2 12.5 3.4l3.6 1c10.6 2.8 21.7 1.4 31.3-4.2 9.6-5.5 16.5-14.4 19.3-25.1l11.3-42c5.9-22-7.2-44.8-29.2-50.7l-3.6-1c-4.4-1.2-8.6-2.3-12.6-3.3l-12.5-3-1-12.8c-2.1-27.8-9.3-54.5-21.2-79.4l-5.5-11.6 9.3-8.9c2.9-2.8 6-5.9 9.2-9.1l2.6-2.6c7.8-7.8 12-18.2 12-29.2s-4.3-21.5-12-29.2L700.8 295c-7.8-7.8-18.2-12-29.2-12s-21.5 4.3-29.2 12l-2.6 2.6c-3.2 3.2-6.3 6.2-9.1 9.2l-8.9 9.3-11.6-5.5c-24.9-11.9-51.7-19-79.4-21.2l-12.8-1-3-12.5c-1-4-2.1-8.1-3.3-12.6l-1-3.6c-2.8-10.6-9.7-19.5-19.3-25.1-9.6-5.5-20.7-7-31.4-4.2l-42.1 11.3c-22 5.9-35.2 28.6-29.2 50.7l0.9 3.5c1.2 4.4 2.3 8.6 3.4 12.5l3.6 12.3L386 328c-11.5 7.9-22.2 16.8-31.8 26.4-9.6 9.6-18.5 20.3-26.4 31.8l-7.3 10.6-12.3-3.6c-3.9-1.1-8.1-2.3-12.5-3.4l-3.5-0.9c-22-5.9-44.8 7.2-50.7 29.2L230.4 460c-2.8 10.6-1.4 21.7 4.2 31.4s14.4 16.5 25.1 19.3l3.7 1c4.4 1.2 8.6 2.3 12.5 3.3l12.5 3 1 12.8c2.1 27.8 9.3 54.5 21.2 79.4l5.5 11.6-9.3 8.9c-2.9 2.8-6 5.9-9.2 9.1l-2.6 2.6c-7.8 7.8-12 18.2-12 29.2s4.3 21.5 12 29.2l30.8 30.8c16.1 16.1 42.4 16.1 58.5 0l2.7-2.6c3.2-3.2 6.2-6.2 9-9.1l8.7-9.3z m108.6-4.3c-49.5 0-98.9-18.8-136.5-56.5-36.4-36.4-56.5-84.9-56.5-136.5 0-51.6 20.1-100.1 56.5-136.5 75.3-75.3 197.8-75.3 273.1 0 36.4 36.4 56.5 84.9 56.5 136.5 0 51.6-20.1 100.1-56.5 136.5-37.7 37.7-87.2 56.5-136.6 56.5z m0-350.6c-40.4 0-80.8 15.4-111.5 46.1-29.7 29.7-46.1 69.3-46.1 111.5s16.4 81.8 46.1 111.5c61.5 61.5 161.5 61.5 223 0 29.7-29.7 46.1-69.3 46.1-111.5s-16.4-81.8-46.1-111.5c-30.8-30.7-71.2-46.1-111.5-46.1z" fill="#11AAED" p-id="1054"></path></svg>