<?xml version="1.0" standalone="no"?><!DOCTYPE svg PUBLIC "-//W3C//DTD SVG 1.1//EN" "http://www.w3.org/Graphics/SVG/1.1/DTD/svg11.dtd"><svg t="1554689039445" class="icon" style="" viewBox="0 0 1024 1024" version="1.1" xmlns="http://www.w3.org/2000/svg" p-id="5402" data-spm-anchor-id="a313x.7781069.0.i11" xmlns:xlink="http://www.w3.org/1999/xlink" width="200" height="200"><defs><style type="text/css"></style></defs><path d="M203.7 334.3c-23.4 0-42.4-19-42.4-42.4s19-42.4 42.4-42.4h80.6c23.4 0 42.4 19 42.4 42.4s-19 42.4-42.4 42.4h-80.6zM203.7 499.6c-23.4 0-42.4-19-42.4-42.4s19-42.4 42.4-42.4h80.6c23.4 0 42.4 19 42.4 42.4s-19 42.4-42.4 42.4h-80.6zM203.7 664.7c-23.4 0-42.4-19-42.4-42.4s19-42.4 42.4-42.4h80.6c23.4 0 42.4 19 42.4 42.4s-19 42.4-42.4 42.4h-80.6z" fill="#409EFF" p-id="5403"></path><path d="M809 126.6H283c-29.7 0-53.7 24.1-53.7 53.7v56.4h54.9c30.4 0 55.3 24.9 55.3 55.3s-24.9 55.3-55.3 55.3h-54.9V402h54.9c30.4 0 55.3 24.9 55.3 55.3s-24.9 55.3-55.3 55.3h-54.9v54.6h54.9c30.4 0 55.3 24.9 55.3 55.3s-24.9 55.3-55.3 55.3h-54.9v166.1c0 29.7 24.1 53.7 53.7 53.7h526c29.7 0 53.7-24.1 53.7-53.7V180.3c0-29.7-24-53.7-53.7-53.7z m-94.6 599.3c0 24.8-20.3 45.1-45.1 45.1H450.4c-24.8 0-45.1-20.3-45.1-45.1V589.1c0-63.7 44.4-117.4 103.8-131.9-34.6-18.3-58.3-54.6-58.3-96.5 0-60.2 48.8-109 109-109s109 48.8 109 109c0 41.9-23.6 78.2-58.3 96.5 59.4 14.4 103.8 68.2 103.8 131.9v136.8z" fill="#409EFF" p-id="5404"></path></svg>